<svg xmlns="http://www.w3.org/2000/svg" width="384" height="224">
    <style>line, path, circle,rect,polygon {
                          stroke: black;
                          stroke-width: 2;
                          stroke-opacity: 1;
                          fill-opacity: 1;
                          stroke-linecap: round;
                          stroke-linejoin: miter;
                        }

                    text {
                        fill: black;
                        }
                        rect.backdrop{
                            stroke: none;
                            fill: white;
                        }
                        .broken{
                            stroke-dasharray: 8;
                        }
                        .filled{
                            fill: black;
                        }
                        .bg_filled{
                            fill: white;
                        }
                        .nofill{
                            fill: white;
                        }

                        text {
                         font-family: monospace;
                         font-size: 14px;
                        }

                        .end_marked_arrow{
                            marker-end: url(#arrow);
                         }
                        .start_marked_arrow{
                            marker-start: url(#arrow);
                         }

                        .end_marked_diamond{
                            marker-end: url(#diamond);
                         }
                        .start_marked_diamond{
                            marker-start: url(#diamond);
                         }

                        .end_marked_circle{
                            marker-end: url(#circle);
                         }
                        .start_marked_circle{
                            marker-start: url(#circle);
                         }

                        .end_marked_open_circle{
                            marker-end: url(#open_circle);
                         }
                        .start_marked_open_circle{
                            marker-start: url(#open_circle);
                         }

                        .end_marked_big_open_circle{
                            marker-end: url(#big_open_circle);
                         }
                        .start_marked_big_open_circle{
                            marker-start: url(#big_open_circle);
                         }

                         
                        </style>
    <defs>
        <marker id="arrow" viewBox="-2 -2 8 8" refX="4" refY="2" markerWidth="7" markerHeight="7" orient="auto-start-reverse">
            <polygon points="0,0 0,4 4,2 0,0"></polygon>
        </marker>
        <marker id="diamond" viewBox="-2 -2 8 8" refX="4" refY="2" markerWidth="7" markerHeight="7" orient="auto-start-reverse">
            <polygon points="0,2 2,0 4,2 2,4 0,2"></polygon>
        </marker>
        <marker id="circle" viewBox="0 0 8 8" refX="4" refY="4" markerWidth="7" markerHeight="7" orient="auto-start-reverse">
            <circle cx="4" cy="4" r="2" class="filled"></circle>
        </marker>
        <marker id="open_circle" viewBox="0 0 8 8" refX="4" refY="4" markerWidth="7" markerHeight="7" orient="auto-start-reverse">
            <circle cx="4" cy="4" r="2" class="bg_filled"></circle>
        </marker>
        <marker id="big_open_circle" viewBox="0 0 8 8" refX="4" refY="4" markerWidth="7" markerHeight="7" orient="auto-start-reverse">
            <circle cx="4" cy="4" r="3" class="bg_filled"></circle>
        </marker>
    </defs>
    <rect class="backdrop" x="0" y="0" width="384" height="224"></rect>
    <text x="138" y="12" class="">hotfix</text>
    <line x1="212" y1="12" x2="212" y2="48" class="solid end_marked_arrow"></line>
    <line x1="80" y1="56" x2="376" y2="56" class="solid end_marked_arrow"></line>
    <circle cx="212" cy="56" r="4" class="filled"></circle>
    <line x1="212" y1="56" x2="232" y2="96" class="solid end_marked_arrow"></line>
    <circle cx="348" cy="56" r="4" class="filled"></circle>
    <text x="234" y="76" class="">rebase</text>
    <polygon points="344,76 350,68 348,78" class="filled"></polygon>
    <text x="58" y="108" class="">develop</text>
    <circle cx="236" cy="104" r="4" class="filled"></circle>
    <circle cx="284" cy="104" r="4" class="filled"></circle>
    <polygon points="280,124 286,116 284,126" class="filled"></polygon>
    <circle cx="212" cy="152" r="4" class="filled"></circle>
    <polygon points="208,172 212,160 216,172" class="filled"></polygon>
    <text x="26" y="60" class="">master</text>
    <text x="10" y="156" class="">feature</text>
    <text x="74" y="156" class="">branches</text>
    <g>
        <line x1="192" y1="8" x2="208" y2="8" class="solid"></line>
        <path d="M 208,8 A 4,4 0,0,1 212,12" class="nofill"></path>
    </g>
    <g>
        <circle cx="100" cy="56" r="4" class="filled"></circle>
        <line x1="100" y1="56" x2="120" y2="96" class="solid"></line>
        <line x1="120" y1="96" x2="122" y2="100" class="solid"></line>
        <path d="M 122,100 A 8,8 0,0,0 128,104" class="nofill"></path>
    </g>
    <g>
        <line x1="348" y1="64" x2="344" y2="80" class="solid"></line>
        <line x1="348" y1="64" x2="352" y2="80" class="solid"></line>
        <line x1="344" y1="80" x2="334" y2="100" class="solid"></line>
        <circle cx="132" cy="104" r="4" class="filled"></circle>
        <line x1="132" y1="104" x2="328" y2="104" class="solid"></line>
        <line x1="132" y1="104" x2="152" y2="144" class="solid"></line>
        <path d="M 334,100 A 8,8 0,0,1 328,104" class="nofill"></path>
        <line x1="152" y1="144" x2="154" y2="148" class="solid"></line>
        <path d="M 154,148 A 8,8 0,0,0 160,152" class="nofill"></path>
        <line x1="160" y1="152" x2="264" y2="152" class="broken"></line>
        <line x1="284" y1="112" x2="280" y2="128" class="solid"></line>
        <line x1="284" y1="112" x2="288" y2="128" class="solid"></line>
        <line x1="280" y1="128" x2="270" y2="148" class="solid"></line>
        <path d="M 270,148 A 8,8 0,0,1 264,152" class="nofill"></path>
    </g>
    <g>
        <line x1="212" y1="176" x2="212" y2="196" class="solid"></line>
        <line x1="160" y1="200" x2="208" y2="200" class="solid"></line>
        <path d="M 212,196 A 4,4 0,0,1 208,200" class="nofill"></path>
    </g>
    <g>
        <text x="90" y="204">mudanç</text>
        <text x="138" y="204">as</text>
    </g>
</svg>